<?xml version="1.0" encoding="UTF-8"?><svg xmlns="http://www.w3.org/2000/svg" xmlns:xlink="http://www.w3.org/1999/xlink" height="190.9" preserveAspectRatio="xMidYMid meet" version="1.0" viewBox="-1.1 -0.3 269.8 190.9" width="269.8" zoomAndPan="magnify"><g id="change1_1"><path d="m268.605 115.06c.053-1.028-.256-2.051-.902-2.912-1.388-1.851-3.891-2.508-5.612-2.508-2.381 0-4.226 1.122-4.936 3.002-.281.745-.585 1.515-.905 2.301 0-.005 0-.01 0-.016 0-.021-.002-.04-.002-.06 0-.022.002-.044.002-.065s-.002-.04-.002-.06c0-.022.002-.044.002-.065s-.002-.04-.002-.06c0-.022.002-.044.002-.065s-.002-.04-.002-.06c0-.022.002-.044.002-.065s-.002-.04-.002-.06c0-.022.002-.044.002-.065s-.002-.04-.002-.06c0-.022.002-.044.002-.065s-.002-.04-.002-.06c0-.022.002-.044.002-.065s-.002-.04-.002-.06c0-.022.002-.044.002-.065s-.002-.04-.002-.06c0-.022.002-.044.002-.065s-.002-.04-.002-.06c0-.022.002-.044.002-.065 0-6.392-3.091-10.973-8.362-12.913.021-.315.028-.63.018-.944 0-.009-.002-.017-.002-.026-.001-.033.003-.066.002-.1 0-.009-.002-.017-.002-.026-.001-.033.003-.066.002-.1 0-.009-.002-.017-.002-.026-.001-.033.003-.066.002-.1 0-.009-.002-.017-.002-.026-.001-.033.003-.066.002-.1 0-.009-.002-.017-.002-.026-.001-.033.003-.066.002-.1 0-.009-.002-.017-.002-.026-.001-.033.003-.066.002-.1 0-.009-.002-.017-.002-.026-.001-.033.003-.066.002-.1 0-.009-.002-.017-.002-.026-.001-.033.003-.066.002-.1 0-.009-.002-.017-.002-.026-.001-.033.003-.066.002-.1 0-.009-.002-.017-.002-.026-.001-.033.003-.066.002-.1 0-.009-.002-.017-.002-.026-.001-.033.003-.066.002-.1 0-.009-.002-.017-.002-.026-.001-.033.003-.066.002-.1 0-.009-.002-.017-.002-.026-.001-.033.003-.066.002-.1 0-.009-.002-.017-.002-.026-.001-.033.003-.066.002-.1 0-.009-.002-.017-.002-.026-.001-.033.003-.066.002-.1 0-.009-.002-.017-.002-.026-.001-.033.003-.066.002-.1 0-.009-.002-.017-.002-.026-.001-.033.003-.066.002-.1 0-.009-.002-.017-.002-.026-.001-.033.003-.066.002-.1 0-.009-.002-.017-.002-.026-.001-.033.003-.066.002-.1 0-.009-.002-.017-.002-.026-.001-.033.003-.066.002-.1 0-.009-.002-.017-.002-.026-.001-.033.003-.066.002-.1 0-.009-.002-.017-.002-.026-.001-.033.003-.066.002-.1 0-.009-.002-.017-.002-.026-.001-.033.003-.066.002-.1 0-.009-.002-.017-.002-.026-.001-.033.003-.066.002-.1 0-.009-.002-.017-.002-.026-.001-.033.003-.066.002-.1 0-.009-.002-.017-.002-.026-.001-.033.003-.066.002-.1 0-.009-.002-.017-.002-.026-.001-.033.003-.066.002-.1 0-.009-.002-.017-.002-.026-.001-.033.003-.066.002-.1 0-.009-.002-.017-.002-.026-.001-.033.003-.066.002-.1 0-.009-.002-.017-.002-.026-.001-.033.003-.066.002-.1 0-.009-.002-.017-.002-.026-.001-.033.003-.066.002-.1 0-.009-.002-.017-.002-.026-.001-.033.003-.066.002-.1 0-.009-.002-.017-.002-.026-.001-.033.003-.066.002-.1 0-.009-.002-.017-.002-.026-.001-.033.003-.066.002-.1 0-.009-.002-.017-.002-.026-.001-.033.003-.066.002-.1 0-.009-.002-.017-.002-.026-.001-.033.003-.066.002-.1 0-.009-.002-.017-.002-.026-.001-.033.003-.066.002-.1 0-.009-.002-.017-.002-.026-.001-.033.003-.066.002-.1 0-.009-.002-.017-.002-.026-.001-.033.003-.066.002-.1 0-.009-.002-.017-.002-.026-.001-.033.003-.066.002-.1 0-.009-.002-.017-.002-.026-.001-.033.003-.066.002-.1 0-.009-.002-.017-.002-.026-.001-.033.003-.066.002-.1 0-.009-.002-.017-.002-.026-.001-.033.003-.066.002-.1 0-.009-.002-.017-.002-.026-.001-.033.003-.066.002-.1 0-.009-.002-.017-.002-.026-.001-.033.003-.066.002-.1 0-.009-.002-.017-.002-.026-.001-.033.003-.066.002-.1 0-.009-.002-.017-.002-.026-.001-.033.003-.066.002-.1 0-.009-.002-.017-.002-.026-.001-.033.003-.066.002-.1 0-.009-.002-.017-.002-.026-.001-.033.003-.066.002-.1 0-.009-.002-.017-.002-.026-.001-.033.003-.066.002-.1 0-.009-.002-.017-.002-.026-.001-.033.003-.066.002-.1 0-.009-.002-.017-.002-.026-.001-.033.003-.066.002-.1 0-.009-.002-.017-.002-.026-.001-.033.003-.066.002-.1 0-.009-.002-.017-.002-.026-.001-.033.003-.066.002-.1 0-.009-.002-.017-.002-.026-.001-.033.003-.066.002-.1 0-.009-.002-.017-.002-.026-.001-.033.003-.066.002-.1-.074-2.328-.919-4.324-2.269-5.721 2.99-3.474 5.859-8.046 8.592-13.718 4.696-9.745 6.747-15.287 7.551-17.724.174-.527.246-1.068.223-1.602-.001-.042.002-.084 0-.125-.001-.042.002-.084 0-.125-.001-.042.002-.084 0-.125-.001-.042.002-.084 0-.125-.001-.042.002-.084 0-.125-.001-.042.002-.084 0-.125-.001-.042.002-.084 0-.125-.001-.042.002-.084 0-.125-.001-.042.002-.084 0-.125-.001-.042.002-.084 0-.125-.001-.042.002-.084 0-.125-.001-.042.002-.084 0-.125-.001-.042.002-.084 0-.125-.001-.042.002-.084 0-.125-.001-.042.002-.084 0-.125-.001-.042.002-.084 0-.125-.001-.042.002-.084 0-.125-.001-.042.002-.084 0-.125-.001-.042.002-.084 0-.125-.001-.042.002-.084 0-.125-.001-.042.002-.084 0-.125-.001-.042.002-.084 0-.125-.001-.042.002-.084 0-.125-.001-.042.002-.084 0-.125-.001-.042.002-.084 0-.125-.001-.042.002-.084 0-.125-.001-.042.002-.084 0-.125-.001-.042.002-.084 0-.125-.001-.042.002-.084 0-.125-.001-.042.002-.084 0-.125-.001-.042.002-.084 0-.125-.001-.042.002-.084 0-.125-.001-.042.002-.084 0-.125-.001-.042.002-.084 0-.125-.001-.042.002-.084 0-.125-.001-.042.002-.084 0-.125-.001-.042.002-.084 0-.125-.001-.042.002-.084 0-.125-.001-.042.002-.084 0-.125-.001-.042.002-.084 0-.125-.001-.042.002-.084 0-.125-.001-.042.002-.084 0-.125-.001-.042.002-.084 0-.125-.001-.042.002-.084 0-.125-.001-.042.002-.084 0-.125-.001-.042.002-.084 0-.125-.001-.042.002-.084 0-.125-.001-.042.002-.084 0-.125-.001-.042.002-.084 0-.125-.001-.042.002-.084 0-.125-.001-.042.002-.084 0-.125-.001-.042.002-.084 0-.125-.001-.042.002-.084 0-.125-.001-.042.002-.084 0-.125-.001-.042.002-.084 0-.125-.013-.913-.305-1.81-.867-2.588-1.37-1.895-3.81-2.567-5.481-2.567-2.087 0-3.769.981-4.496 2.626-.437.987-.951 2.072-1.517 3.216 0-.001 0-.001 0-.002-.001-.042.001-.084 0-.125-.001-.042.001-.084 0-.125-.001-.042.001-.084 0-.125-.001-.042.001-.084 0-.125-.001-.042.001-.084 0-.125-.001-.042.001-.084 0-.125-.001-.042.001-.084 0-.125-.001-.042.001-.084 0-.125-.001-.042.001-.084 0-.125-.001-.042.001-.084 0-.125-.001-.042.001-.084 0-.125-.001-.042.001-.084 0-.125-.001-.042.001-.084 0-.125-.001-.042.001-.084 0-.125-.001-.042.001-.084 0-.125-.001-.042.001-.084 0-.125-.001-.042.001-.084 0-.125-.001-.042.001-.084 0-.125-.001-.042.001-.084 0-.125-.001-.042.001-.084 0-.125-.001-.042.001-.084 0-.125-.001-.042.001-.084 0-.125-.001-.042.001-.084 0-.125-.001-.042.001-.084 0-.125-.001-.042.001-.084 0-.125-.001-.042.001-.084 0-.125-.001-.042.001-.084 0-.125-.018-.966-.163-1.911-.444-2.834-.972-3.194-3.373-5.544-5.923-7.29.306-.539.624-1.082.927-1.619.692-1.227 1.025-2.541 1.006-3.85 0-.042.001-.083 0-.125 0-.042.001-.083 0-.125 0-.042.001-.084 0-.125 0-.042.001-.083 0-.125 0-.042.001-.083 0-.125 0-.042.001-.083 0-.125 0-.042.001-.083 0-.125 0-.042.001-.084 0-.125 0-.042.001-.083 0-.125 0-.042.001-.083 0-.125 0-.042.001-.083 0-.125 0-.042.001-.084 0-.125 0-.042.001-.083 0-.125 0-.042.001-.083 0-.125 0-.042.001-.083 0-.125 0-.042.001-.083 0-.125 0-.042.001-.084 0-.125 0-.042.001-.083 0-.125 0-.042.001-.083 0-.125 0-.042.001-.083 0-.125 0-.042.001-.084 0-.125 0-.042.001-.083 0-.125 0-.042.001-.083 0-.125 0-.042.001-.083 0-.125 0-.042.001-.084 0-.125 0-.042.001-.083 0-.125 0-.042.001-.083 0-.125 0-.042.001-.083 0-.125 0-.042.001-.083 0-.125 0-.042.001-.084 0-.125 0-.042.001-.083 0-.125 0-.042.001-.083 0-.125 0-.042.001-.083 0-.125 0-.042.001-.084 0-.125 0-.042.001-.083 0-.125 0-.042.001-.083 0-.125 0-.042.001-.083 0-.125 0-.042.001-.083 0-.125 0-.042.001-.084 0-.125 0-.042.001-.083 0-.125 0-.042.001-.083 0-.125 0-.042.001-.083 0-.125 0-.042.001-.084 0-.125 0-.042.001-.083 0-.125 0-.042.001-.083 0-.125 0-.042.001-.083 0-.125 0-.042.001-.083 0-.125 0-.042.001-.084 0-.125 0-.042.001-.083 0-.125 0-.042.001-.083 0-.125 0-.042.001-.083 0-.125 0-.042.001-.084 0-.125 0-.042.001-.083 0-.125 0-.042.001-.083 0-.125 0-.042.001-.083 0-.125.004-1.313-.345-2.624-1.055-3.839-1.722-2.947-5.354-4.928-9.041-4.928-3.376 0-6.337 1.566-8.338 4.41-3.509 4.988-5.52 8.964-6.183 12.326-.57-1.976-1.509-3.703-2.793-5.111-1.748-1.917-5.054-4.202-10.872-4.202-.216 0-.433.003-.654.009-5.551.156-11.058 3.421-15.909 8.287-.014.013-.031.023-.044.036-.045.044-.084.08-.128.123 1.996-3.182 3.782-5.727 5.18-7.265.934-1.026 1.363-2.353 1.277-3.828-.002-.042.003-.083 0-.125-.002-.042.003-.083 0-.125-.002-.042.003-.083 0-.125-.002-.042.003-.083 0-.125-.002-.042.003-.083 0-.125-.002-.042.003-.083 0-.125-.002-.042.003-.083 0-.125-.002-.042.003-.083 0-.125-.002-.042.003-.083 0-.125-.002-.042.003-.083 0-.125-.002-.042.003-.083 0-.125-.002-.042.003-.083 0-.125-.002-.042.003-.083 0-.125-.002-.042.003-.083 0-.125-.002-.042.003-.083 0-.125-.002-.042.003-.083 0-.125-.002-.042.003-.083 0-.125-.002-.042.003-.083 0-.125-.002-.042.003-.083 0-.125-.002-.042.003-.083 0-.125-.002-.042.003-.083 0-.125-.002-.042.003-.083 0-.125-.002-.042.003-.083 0-.125-.002-.042.003-.083 0-.125-.002-.042.003-.083 0-.125-.002-.042.003-.083 0-.125-.002-.042.003-.083 0-.125-.002-.042.003-.083 0-.125-.002-.042.003-.083 0-.125-.002-.042.003-.083 0-.125-.002-.042.003-.083 0-.125-.002-.042.003-.083 0-.125-.002-.042.003-.083 0-.125-.002-.042.003-.083 0-.125-.002-.042.003-.083 0-.125-.002-.042.003-.083 0-.125-.002-.042.003-.083 0-.125-.002-.042.003-.083 0-.125-.002-.042.003-.083 0-.125-.002-.042.003-.083 0-.125-.002-.042.003-.083 0-.125-.002-.042.003-.083 0-.125-.002-.042.003-.083 0-.125-.002-.042.003-.083 0-.125-.002-.042.003-.083 0-.125-.002-.042.003-.083 0-.125-.002-.042.003-.083 0-.125-.002-.042.003-.083 0-.125-.002-.042.003-.083 0-.125-.002-.042.003-.083 0-.125-.002-.042.003-.083 0-.125-.002-.042.003-.083 0-.125-.002-.042.003-.083 0-.125-.002-.042.003-.083 0-.125-.002-.042.003-.083 0-.125-.035-.916-.265-1.889-.707-2.888-1.464-3.311-5.176-6.662-9.438-6.662-1.931 0-4.762.687-7.283 3.955-1.782 2.312-6.593 9.746-11.843 19.107-2.421-1.329-5.637-2.465-9.661-2.604-.152-.006-.306-.008-.459-.008-4.197 0-8.735 2.027-13.208 5.732-.073.06-.145.112-.219.173-10.25 8.527-15.487 8.528-19.757 6.76.233-.369.45-.71.645-1.009.792-1.219 1.204-2.538 1.246-3.863.002-.042-.001-.084 0-.125.002-.042-.001-.084 0-.125.002-.042-.001-.084 0-.125.002-.042-.001-.084 0-.125.002-.042-.001-.084 0-.125.002-.042-.001-.084 0-.125.002-.042-.001-.084 0-.125.002-.042-.001-.084 0-.125.002-.042-.001-.084 0-.125.002-.042-.001-.084 0-.125.002-.042-.001-.084 0-.125.002-.042-.001-.084 0-.125.002-.042-.001-.084 0-.125.002-.042-.001-.084 0-.125.002-.042-.001-.084 0-.125.002-.042-.001-.084 0-.125.002-.042-.001-.084 0-.125.002-.042-.001-.084 0-.125.002-.042-.001-.084 0-.125.002-.042-.001-.084 0-.125.002-.042-.001-.084 0-.125.002-.042-.001-.084 0-.125.002-.042-.001-.084 0-.125.002-.042-.001-.084 0-.125.002-.042-.001-.084 0-.125.002-.042-.001-.084 0-.125.002-.042-.001-.084 0-.125.002-.042-.001-.084 0-.125.002-.042-.001-.084 0-.125.002-.042-.001-.084 0-.125.002-.042-.001-.084 0-.125.002-.042-.001-.084 0-.125.002-.042-.001-.084 0-.125.002-.042-.001-.084 0-.125.002-.042-.001-.084 0-.125.002-.042-.001-.084 0-.125.002-.042-.001-.084 0-.125.002-.042-.001-.084 0-.125.002-.042-.001-.084 0-.125.002-.042-.001-.084 0-.125.002-.042-.001-.084 0-.125.002-.042-.001-.084 0-.125.002-.042-.001-.084 0-.125.002-.042-.001-.084 0-.125.002-.042-.001-.084 0-.125.002-.042-.001-.084 0-.125.002-.042-.001-.084 0-.125.002-.042-.001-.084 0-.125.002-.042-.001-.084 0-.125.002-.042-.001-.084 0-.125.002-.042-.001-.084 0-.125.002-.042-.001-.084 0-.125.002-.042-.001-.084 0-.125.002-.042-.001-.084 0-.125.002-.042-.001-.084 0-.125.064-1.297-.233-2.602-.897-3.825-1.586-2.924-5.049-4.888-8.616-4.888-3.285 0-6.256 1.66-8.151 4.554-1.487 2.271-2.865 4.549-3.954 6.774-.397-15.553-8.782-24.799-23.281-25.44-.621-.088-1.24-.102-1.853-.102-14.028 0-27.185 7.397-36.096 20.296-5.972 8.643-9.253 18.605-9.247 27.094v.125.125.125.125.125.125.125.125.125.125.125.125.125.125.125.125.125.125.125.125.125.125.125.125.125.125.125.125.125.125.125.125.125.125.125.125.125.125.125.125.125.125.125.125.125.125.125.125.125.125.125.125.125.125.125c-.004 1.183.07 2.33.195 3.449-1.067 3.291-1.641 6.553-1.707 9.662-.001.042.001.083 0 .125s.001.083 0 .125.001.083 0 .125.001.083 0 .125.001.083 0 .125.001.083 0 .125.001.083 0 .125.001.083 0 .125.001.083 0 .125.001.083 0 .125.001.083 0 .125.001.083 0 .125.001.083 0 .125.001.083 0 .125.001.083 0 .125.001.083 0 .125.001.083 0 .125.001.083 0 .125.001.083 0 .125.001.083 0 .125.001.083 0 .125.001.083 0 .125.001.083 0 .125.001.083 0 .125.001.083 0 .125.001.083 0 .125.001.083 0 .125.001.083 0 .125.001.083 0 .125.001.083 0 .125.001.083 0 .125.001.083 0 .125.001.083 0 .125.001.083 0 .125.001.083 0 .125.001.083 0 .125.001.083 0 .125.001.083 0 .125.001.083 0 .125.001.083 0 .125.001.083 0 .125.001.083 0 .125.001.083 0 .125.001.083 0 .125.001.083 0 .125.001.083 0 .125.001.083 0 .125.001.083 0 .125.001.083 0 .125.001.083 0 .125.001.083 0 .125.001.083 0 .125.001.083 0 .125.001.083 0 .125.001.083 0 .125c-.127 4.975 1.022 9.563 3.44 13.253-9.528 2.961-18.187 9.452-24.728 18.818-6.406 9.174-9.949 19.79-9.962 28.832v.125.125.125.125.125.125.125.125.125.125.125.125.125.125.125.125.125.125.125.125.125.125.125.125.125.125.125.125.125.125.125.125.125.125.125.125.125.125.125.125.125.125.125.125.125.125.125.125.125.125.125.125.125.125.125c-.008 1.561.091 3.074.295 4.526-.85 3.397-1.318 6.735-1.39 9.925-.001.042.001.083 0 .125s.001.083 0 .125.001.083 0 .125.001.083 0 .125.001.083 0 .125.001.083 0 .125.001.083 0 .125.001.083 0 .125.001.083 0 .125.001.083 0 .125.001.083 0 .125.001.083 0 .125.001.083 0 .125.001.083 0 .125.001.083 0 .125.001.083 0 .125.001.083 0 .125.001.083 0 .125.001.083 0 .125.001.083 0 .125.001.083 0 .125.001.083 0 .125.001.083 0 .125.001.083 0 .125.001.083 0 .125.001.083 0 .125.001.083 0 .125.001.083 0 .125.001.083 0 .125.001.083 0 .125.001.083 0 .125.001.083 0 .125.001.083 0 .125.001.083 0 .125.001.083 0 .125.001.083 0 .125.001.083 0 .125.001.083 0 .125.001.083 0 .125.001.083 0 .125.001.083 0 .125.001.083 0 .125.001.083 0 .125.001.083 0 .125.001.083 0 .125.001.083 0 .125.001.083 0 .125.001.083 0 .125.001.083 0 .125.001.083 0 .125.001.083 0 .125.001.083 0 .125.001.083 0 .125.001.083 0 .125.001.083 0 .125c-.177 6.864 1.428 13.054 4.755 17.708 3.073 4.298 9.157 9.428 20.694 9.461h.076c7.687 0 15.639-3.743 22.96-10.558.363 3.993 3.356 7.79 8.769 7.805l1.342.004c5.953.018 17.84.052 32.432.052 19.194 0 36.523-.06 51.514-.177.101.011.201.016.303.016h.034c18.263-.211 53.082-.565 81.092-.565 16.321 0 27.269.123 32.539.366.168.008.334.012.497.012 5.462 0 8.482-4.19 8.551-8.132 0-.028-.003-.057-.003-.085 0-.013.002-.027.003-.041 0-.028-.003-.057-.003-.085 0-.013.002-.027.003-.041 0-.028-.003-.057-.003-.085 0-.013.002-.027.003-.041 0-.028-.003-.057-.003-.085 0-.014.002-.027.003-.041 0-.028-.003-.057-.003-.085 0-.013.002-.027.003-.041 0-.028-.003-.057-.003-.085 0-.013.002-.027.003-.041 0-.028-.003-.057-.003-.085 0-.013.002-.027.003-.041 0-.028-.003-.057-.003-.085 0-.013.002-.027.003-.041 0-.028-.003-.057-.003-.085 0-.014.002-.027.003-.041 0-.028-.003-.057-.003-.085 0-.013.002-.027.003-.041 0-.028-.003-.057-.003-.085 0-.013.002-.027.003-.041 0-.028-.003-.057-.003-.085 0-.013.002-.027.003-.041 0-.028-.003-.057-.003-.085 0-.014.002-.027.003-.041 0-.028-.003-.057-.003-.085 0-.013.002-.027.003-.041 0-.028-.003-.057-.003-.085 0-.013.002-.027.003-.041 0-.028-.003-.057-.003-.085 0-.013.002-.027.003-.041 0-.028-.003-.057-.003-.085 0-.013.002-.027.003-.041 0-.028-.003-.057-.003-.085 0-.014.002-.027.003-.041 0-.028-.003-.057-.003-.085 0-.013.002-.027.003-.041 0-.028-.003-.057-.003-.085 0-.013.002-.027.003-.041 0-.028-.003-.057-.003-.085 0-.013.002-.027.003-.041 0-.028-.003-.057-.003-.085 0-.014.002-.027.003-.041 0-.028-.003-.057-.003-.085 0-.013.002-.027.003-.041 0-.028-.003-.057-.003-.085 0-.013.002-.027.003-.041 0-.028-.003-.057-.003-.085 0-.013.002-.027.003-.041 0-.028-.003-.057-.003-.085 0-.014.002-.027.003-.041 0-.028-.003-.057-.003-.085 0-.013.002-.027.003-.041 0-.028-.003-.057-.003-.085 0-.013.002-.027.003-.041 0-.028-.003-.057-.003-.085 0-.013.002-.027.003-.041 0-.028-.003-.057-.003-.085 0-.013.002-.027.003-.041 0-.028-.003-.057-.003-.085 0-.014.002-.027.003-.041 0-.028-.003-.057-.003-.085 0-.013.002-.027.003-.041 0-.028-.003-.057-.003-.085 0-.013.002-.027.003-.041 0-.028-.003-.057-.003-.085 0-.013.002-.027.003-.041 0-.028-.003-.057-.003-.085 0-.014.002-.027.003-.041 0-.028-.003-.057-.003-.085 0-.013.002-.027.003-.041 0-.028-.003-.057-.003-.085 0-.013.002-.027.003-.041 0-.028-.003-.057-.003-.085 0-.013.002-.027.003-.041 0-.028-.003-.057-.003-.085 0-.013.002-.027.003-.041 0-.028-.003-.057-.003-.085 0-.014.002-.027.003-.041 0-.028-.003-.057-.003-.085 0-.013.002-.027.003-.041 0-.028-.003-.057-.003-.085 0-.013.002-.027.003-.041 0-.028-.003-.057-.003-.085 0-.013.002-.027.003-.041 0-.028-.003-.057-.003-.085 0-.014.002-.027.003-.041 0-.028-.003-.057-.003-.085 0-.013.002-.027.003-.041 0-.028-.003-.057-.003-.085 0-.013.002-.027.003-.041 0-.028-.003-.057-.003-.085 0-.013.002-.027.003-.041 0-.028-.003-.057-.003-.085 0-.013.002-.027.003-.041 0-.028-.003-.057-.003-.085 0-.014.002-.027.003-.041 0-.028-.003-.057-.003-.085 0-.013.002-.027.003-.041 0-.028-.003-.057-.003-.085 0-.013.002-.027.003-.041 0-.028-.003-.057-.003-.085 0-.013.002-.027.003-.041 0-.028-.003-.057-.003-.085 0-.014.002-.027.003-.041 0-.028-.003-.057-.003-.085 0-.013.002-.027.003-.041 0-.028-.003-.057-.003-.085 0-.013.002-.027.003-.041 0-.028-.003-.057-.003-.085 0-.013.002-.027.003-.041.076-4.344-3.2-8.856-9.605-9.079-1.221-.042-4.457-.073-9.891-.091 14.615-14.21 22.256-39.791 22.359-40.144.11-.376.163-.757.172-1.138.002-.042-.001-.083 0-.125.002-.042-.001-.083 0-.125.002-.042-.001-.084 0-.125.002-.042-.001-.083 0-.125.002-.042-.001-.083 0-.125.002-.042-.001-.083 0-.125.002-.042-.001-.083 0-.125.002-.042-.001-.084 0-.125.002-.042-.001-.083 0-.125.002-.042-.001-.083 0-.125.002-.042-.001-.083 0-.125.002-.042-.001-.084 0-.125.002-.042-.001-.083 0-.125.002-.042-.001-.083 0-.125.002-.042-.001-.083 0-.125.002-.042-.001-.083 0-.125.002-.042-.001-.084 0-.125.002-.042-.001-.083 0-.125.002-.042-.001-.083 0-.125.002-.042-.001-.083 0-.125.002-.042-.001-.084 0-.125.002-.042-.001-.083 0-.125.002-.042-.001-.083 0-.125.002-.042-.001-.083 0-.125.002-.042-.001-.084 0-.125.002-.042-.001-.083 0-.125.002-.042-.001-.083 0-.125.002-.042-.001-.083 0-.125.002-.042-.001-.083 0-.125.002-.042-.001-.084 0-.125.002-.042-.001-.083 0-.125.002-.042-.001-.083 0-.125.002-.042-.001-.083 0-.125.002-.042-.001-.084 0-.125.002-.042-.001-.083 0-.125.002-.042-.001-.083 0-.125.002-.042-.001-.083 0-.125.002-.042-.001-.083 0-.125.002-.042-.001-.084 0-.125.002-.042-.001-.083 0-.125.002-.042-.001-.083 0-.125.002-.042-.001-.083 0-.125.002-.042-.001-.084 0-.125.002-.042-.001-.083 0-.125.002-.042-.001-.083 0-.125.002-.042-.001-.083 0-.125.002-.042-.001-.083 0-.125.002-.042-.001-.084 0-.125.002-.042-.001-.083 0-.125.002-.042-.001-.083 0-.125.002-.042-.001-.083 0-.125.002-.042-.001-.084 0-.125.002-.042-.001-.083 0-.125.002-.042-.001-.083 0-.125.002.054-.001.013 0-.029z" fill="#1a1a1a"/></g><g id="change2_1"><path d="m55.983 88.525c36.35-.255 67.312-81.821 24.953-83.693-31.36-1.386-49.183 35.299-42.76 52.279-6.396 14.697-2.527 31.557 17.807 31.414zm24.579-74.095c18.573 2.63-6.562 66.083-24.048 66.313-12.173.16-2.323-32.605 18.808-37.58 2.319-.546 3.069-3.513 1.241-5.041-1.341-1.121-3.192-2.067-5.696-2.268-6.932-.556-13.167 1.252-18.409 4.49 3.85-12.181 16.828-27.511 28.104-25.914z" fill="#fff" stroke="#fff" stroke-miterlimit="10" stroke-width="1.5"/></g><g id="change2_2"><path d="m48.836 90.52c-31.491-1.006-49.949 36.94-43.405 54.782-5.958 17.594-1.604 37.015 20.042 37.078 36.219.105 68.012-90.434 23.363-91.86zm-23.054 79.878c-12.82.153-2.397-37.794 19.862-43.496 2.671-.684 3.567-4.062 1.654-6.048-1.539-1.598-3.833-3.015-7.213-3.345-5.838-.569-11.26.859-16.06 3.624 5.706-10.42 16.948-20.563 26.717-18.892 19.012 3.252-6.542 67.937-24.96 68.157z" fill="#fff" stroke="#fff" stroke-miterlimit="10" stroke-width="1.5"/></g><g id="change2_3"><path d="m107.822 40.651-22.569 37.929c-1.184 2.134 3.526 4.562 4.739 2.686 3.121-4.828 13.852-23.55 22.386-38.135.402.185.811.372 1.231.564 3.361 1.532.716 3.8-5.005 13.77-5.72 9.97-13.975 24.208-3.416 28.278 8.84 3.408 14.654-2.126 20.647-12.793.348 7.004 3.927 11.878 12.361 11.642 5.264-.147 10.063-4.254 14.086-9.538.323 5.436 3.042 8.764 9.459 8.383 6.431-.382 11.502-7.067 15.111-14.186.426 8.634 5.076 14.999 16.286 14.685 16.818-.471 31.991-26.982 38.927-41.184.225.1.451.2.679.301 4.251 1.879 2.28 4.155-3.988 13.868-7.559 11.712-13.893 24.505-2.983 29.047 10.945 4.556 19.591-6.349 25.757-19.143 4.203-8.72 6.421-14.382 7.404-17.362.765-2.316-4.227-3.661-5.029-1.85-3.843 8.68-18.043 33.834-22.487 31.735-3.333-1.574 8.737-19.061 13.538-27.395s-1.549-12.782-7.168-15.548c-.633-.312-1.227-.542-1.786-.71 1.571-2.672 3.489-5.981 5.59-9.706 3.329-5.904-7.475-11.825-12.36-4.882-8.135 11.565-6.818 16.036-2.154 19.096-6.977 12.088-21.523 34.53-33.517 34.866-5.737.161-6.658-4.924-5.103-11.551 24.021 6.951 43.07-38.822 17.901-38.116-10.496.295-21.823 14.32-26.864 28.567-3.531 6.306-12.38 21.472-15.94 21.664-5.266.284 21.046-51.684 29.601-61.088 2.633-2.894-5.66-13.093-11.557-5.447-1.879 2.436-7.407 11.035-13.167 21.566-2.073-1.653-5.657-3.718-10.817-3.896-7.829-.271-16.846 8.466-23.277 19.224h-.002s-.019.034-.03.054c-.558.935-1.098 1.884-1.614 2.845-4.687 8.187-18.012 30.881-21.073 29.777-3.42-1.233 7.365-18.711 11.866-27.155 4.501-8.443.498-11.948-5.091-14.582-.695-.328-1.338-.542-1.953-.704 2.437-4.111 4.471-7.473 5.767-9.465 3.676-5.654-6.774-11.673-11.393-4.617-7.457 11.385-6.946 15.62-2.993 18.506zm100.233-6.252c5.06 1.507-4.917 24.332-16.868 21.078 4.685-10.967 12.984-22.235 16.868-21.078zm-48.75 2.169c2.187-.247 3.917.556 5.188 1.557-1.663 3.274-3.28 6.63-4.764 9.964-.159.331-13.838 28.753-21.329 28.701-5.22-.036 12.063-39.224 20.905-40.222z" fill="#fff" stroke="#fff" stroke-miterlimit="10" stroke-width="1.5"/></g><g id="change2_4"><path d="m124.425 90.835c-2.805-.153-11.124-.51-20.554-.221-.003-.006-.005-.013-.008-.019-11.745.529-25.202.426-29.047.135-5.79-.439-5.926 11.156 2.101 11.594 2.805.153 11.124.51 20.554.221.003.006.005.013.008.019 11.745-.529 25.202-.426 29.047-.135 5.79.439 5.926-11.156-2.101-11.594z" fill="#fff" stroke="#fff" stroke-miterlimit="10" stroke-width="1.5"/></g><g id="change2_5"><path d="m255.862 168.12c-10.622-.369-183.278.319-197.837-.073-8.514-.229-8.726 11.557-.748 11.579 10.63.03 49.736.159 85.554-.124.009.006.019.012.028.018 44.625-.516 99.255-.866 113.802-.197 7.769.359 8.262-10.888-.799-11.203z" fill="#fff" stroke="#fff" stroke-miterlimit="10" stroke-width="1.5"/></g><g id="change2_6"><path d="m240.239 89.77c-4.073.341-18.378.62-30.894.245-.002.006-.005.013-.007.019-10.042-.166-18.87.299-21.845.489-8.514.543-7.783 12.119-1.649 11.605 4.073-.341 18.378-.62 30.893-.245.002-.006.005-.013.007-.019 10.042.166 18.87-.299 21.845-.489 8.515-.542 7.785-12.119 1.65-11.605z" fill="#fff" stroke="#fff" stroke-miterlimit="10" stroke-width="1.5"/></g><g id="change2_7"><path d="m259.963 115.496c-3.858 10.223-17.721 39.409-32.861 39.915-5.837.195-6.496-5.353-4.608-12.527 24.212 6.685 44.726-39.092 18.566-38.36-11.074.31-22.619 14.452-27.835 28.899-3.967 8.346-11.089 22.141-14.478 21.332-3.185-.76 10.195-30.183 14.352-37.735 4.157-7.553-10.681-11.697-14.602-7.44-5.389 5.851-17.622 27.469-24.078 39.168 4.86-12.029 11.783-28.638 15.443-35.284 2.578-4.682-9.024-8.298-10.967-4.442-2.239 4.444-4.732 10.138-7.178 16.078-1.891 3.547-16.227 30.132-21.374 30.301-5.201.172 13.373-35.924 17.156-41.837 2.948-4.608-8.799-10.192-12.713-3.724-1.687 2.789-7.318 12.413-11.691 22.748-4.817 8.174-14.182 23.156-18.165 23.244-5.273.116 19.904-52.135 28.249-61.725 2.569-2.952-5.947-12.965-11.674-5.192-2.847 3.865-14.248 22.923-21.573 40.836-5.031 9.186-15.315 27.033-18.792 26.084-3.073-.838 11.542-30.919 15.787-38.231s-10.057-11.81-13.984-7.734c-5.454 5.664-18.137 26.964-24.671 38.2 4.347-10.241 10.633-24.573 16.356-35.461 2.439-4.64-8.629-8.639-10.622-4.9-7.908 14.831-19.879 46.577-21.288 50.607-.807 2.307 1.727 3.867 4.494 4.289 2.919.93 7.771 1.938 9.296-.974 6.676-12.743 23.294-36.032 23.294-36.032s-21.36 35.382-3.729 38.584c6.609 1.2 12.699-4.944 17.624-12.734-.705 7.788 1.716 12.867 9.592 12.225 5.353-.436 10.26-5.393 14.282-11.342-.309 6.557 2.135 11.154 9.664 11.05 5.077-.07 10.073-5.34 14.366-11.984-1.282 3.533-2.187 6.111-2.528 7.12-.469 1.388.482 2.554 1.961 3.385v.001s.01.005.017.008c.46.257.971.481 1.505.67 2.837 1.179 8.778 3.222 10.235.354 6.641-13.073 22.925-37.289 22.925-37.289s-20.446 35.722-2.201 38.299c7.316 1.033 12.953-5.115 17.052-12.684.987 7.786 5.761 13.305 16.113 13.015 21.604-.605 35.736-36.488 38.876-47.252.69-2.369-4.805-3.617-5.593-1.529zm-17.473-3.163c4.967 1.553-6.595 26.242-17.941 24.412 4.835-12.166 14.185-25.587 17.941-24.412z" fill="#fff" stroke="#fff" stroke-miterlimit="10" stroke-width="1.5"/></g><g id="change2_8"><path d="m165.84 90.314c-2.661 4.968-3.613 7.041-4.373 9.45-1.203 3.813 7.178 9.046 10.258 3.801 3.081-5.245 3.785-6.406 5.364-9.138 3.414-5.909-7.134-11.797-11.249-4.113z" fill="#fff" stroke="#fff" stroke-miterlimit="10" stroke-width="1.5"/></g><g id="change3_1"><path d="m55.983 86.731c36.35-.255 67.312-81.821 24.953-83.693-31.36-1.386-49.183 35.299-42.76 52.279-6.396 14.698-2.527 31.557 17.807 31.414zm24.579-74.095c18.573 2.63-6.562 66.084-24.048 66.313-12.173.16-2.323-32.605 18.808-37.58 2.319-.546 3.069-3.513 1.241-5.041-1.341-1.121-3.192-2.067-5.696-2.268-6.932-.556-13.167 1.252-18.409 4.49 3.85-12.181 16.828-27.51 28.104-25.914z" fill="#191919" stroke="#191919" stroke-miterlimit="10" stroke-width="3"/></g><g id="change3_2"><path d="m48.836 88.727c-31.491-1.006-49.949 36.94-43.405 54.782-5.958 17.594-1.604 37.015 20.042 37.078 36.219.104 68.012-90.434 23.363-91.86zm-23.054 79.877c-12.82.153-2.397-37.794 19.862-43.496 2.671-.684 3.567-4.062 1.654-6.048-1.539-1.598-3.833-3.015-7.213-3.345-5.838-.569-11.26.859-16.06 3.624 5.706-10.42 16.948-20.563 26.717-18.892 19.012 3.252-6.542 67.937-24.96 68.157z" fill="#191919" stroke="#191919" stroke-miterlimit="10" stroke-width="3"/></g><g id="change3_3"><path d="m107.821 38.857-22.568 37.929c-1.184 2.134 3.526 4.562 4.739 2.686 3.121-4.828 13.852-23.55 22.386-38.135.402.185.811.372 1.231.564 3.361 1.532.716 3.8-5.005 13.77-5.72 9.97-13.975 24.208-3.416 28.278 8.84 3.408 14.654-2.126 20.647-12.793.348 7.004 3.927 11.878 12.361 11.642 5.264-.147 10.063-4.254 14.086-9.538.323 5.436 3.042 8.764 9.459 8.383 6.431-.382 11.502-7.067 15.111-14.186.426 8.634 5.076 14.999 16.286 14.685 16.818-.471 31.991-26.982 38.927-41.184.225.1.451.2.679.301 4.251 1.879 2.28 4.155-3.988 13.868-7.559 11.712-13.893 24.505-2.983 29.047 10.945 4.556 19.591-6.349 25.757-19.143 4.203-8.72 6.421-14.382 7.404-17.362.765-2.316-4.227-3.661-5.029-1.85-3.843 8.68-18.043 33.834-22.487 31.735-3.333-1.574 8.737-19.061 13.538-27.395s-1.549-12.782-7.168-15.548c-.633-.312-1.227-.542-1.786-.71 1.571-2.672 3.489-5.981 5.59-9.706 3.329-5.904-7.475-11.825-12.36-4.882-8.135 11.565-6.818 16.036-2.154 19.096-6.977 12.088-21.523 34.53-33.517 34.866-5.737.161-6.658-4.924-5.103-11.551 24.021 6.951 43.07-38.822 17.901-38.116-10.496.295-21.823 14.32-26.864 28.567-3.531 6.306-12.38 21.472-15.94 21.664-5.266.284 21.046-51.684 29.601-61.088 2.633-2.894-5.66-13.093-11.557-5.447-1.879 2.436-7.407 11.035-13.167 21.566-2.073-1.653-5.657-3.718-10.817-3.896-7.829-.271-16.846 8.466-23.277 19.224h-.002s-.019.034-.03.054c-.558.935-1.098 1.884-1.614 2.845-4.687 8.187-18.012 30.881-21.073 29.777-3.42-1.233 7.365-18.711 11.866-27.155 4.501-8.443.498-11.948-5.091-14.582-.695-.328-1.338-.542-1.953-.704 2.437-4.111 4.471-7.473 5.767-9.465 3.676-5.654-6.774-11.673-11.393-4.617-7.457 11.386-6.946 15.62-2.994 18.506zm100.234-6.252c5.06 1.507-4.917 24.332-16.868 21.078 4.685-10.967 12.984-22.235 16.868-21.078zm-48.75 2.17c2.187-.247 3.917.556 5.188 1.557-1.663 3.274-3.28 6.63-4.764 9.964-.159.332-13.838 28.754-21.329 28.702-5.22-.038 12.063-39.226 20.905-40.223z" fill="#191919" stroke="#191919" stroke-miterlimit="10" stroke-width="3"/></g><g id="change3_4"><path d="m124.425 89.041c-2.805-.153-11.124-.51-20.554-.221-.003-.006-.005-.013-.008-.019-11.745.529-25.202.426-29.047.135-5.79-.439-5.926 11.156 2.101 11.594 2.805.153 11.124.51 20.554.221.003.006.005.013.008.019 11.745-.529 25.202-.426 29.047-.135 5.79.44 5.926-11.155-2.101-11.594z" fill="#191919" stroke="#191919" stroke-miterlimit="10" stroke-width="3"/></g><g id="change3_5"><path d="m255.862 166.327c-10.622-.369-183.278.319-197.837-.073-8.514-.229-8.726 11.557-.748 11.579 10.63.03 49.736.159 85.554-.124.009.006.019.012.028.018 44.625-.516 99.255-.866 113.802-.197 7.769.358 8.262-10.889-.799-11.203z" fill="#191919" stroke="#191919" stroke-miterlimit="10" stroke-width="3"/></g><g id="change3_6"><path d="m240.239 87.977c-4.073.341-18.378.62-30.894.245-.002.006-.005.013-.007.019-10.042-.166-18.87.299-21.845.489-8.514.543-7.783 12.119-1.649 11.605 4.073-.341 18.378-.62 30.893-.245.002-.006.005-.013.007-.019 10.042.166 18.87-.299 21.845-.489 8.515-.543 7.785-12.119 1.65-11.605z" fill="#191919" stroke="#191919" stroke-miterlimit="10" stroke-width="3"/></g><g id="change3_7"><path d="m259.963 113.702c-3.858 10.223-17.721 39.409-32.861 39.915-5.837.195-6.496-5.353-4.608-12.527 24.212 6.685 44.726-39.092 18.566-38.36-11.074.31-22.619 14.452-27.835 28.899-3.967 8.346-11.089 22.141-14.478 21.332-3.185-.76 10.195-30.183 14.352-37.735 4.157-7.553-10.681-11.697-14.602-7.44-5.389 5.851-17.622 27.469-24.078 39.168 4.86-12.029 11.783-28.638 15.443-35.284 2.578-4.682-9.024-8.298-10.967-4.442-2.239 4.444-4.732 10.138-7.178 16.078-1.891 3.547-16.227 30.132-21.374 30.301-5.201.172 13.373-35.924 17.156-41.837 2.948-4.608-8.799-10.192-12.713-3.724-1.687 2.789-7.318 12.413-11.691 22.748-4.817 8.174-14.182 23.156-18.165 23.244-5.273.116 19.904-52.135 28.249-61.725 2.569-2.952-5.947-12.965-11.674-5.192-2.847 3.865-14.248 22.923-21.573 40.836-5.031 9.186-15.315 27.033-18.792 26.084-3.073-.838 11.542-30.919 15.787-38.231s-10.057-11.81-13.984-7.734c-5.454 5.664-18.137 26.964-24.671 38.2 4.347-10.241 10.633-24.573 16.356-35.461 2.439-4.64-8.629-8.639-10.622-4.9-7.908 14.831-19.879 46.577-21.288 50.607-.807 2.307 1.727 3.867 4.494 4.289 2.919.93 7.771 1.938 9.296-.974 6.676-12.743 23.294-36.032 23.294-36.032s-21.36 35.382-3.729 38.584c6.609 1.2 12.699-4.944 17.624-12.734-.705 7.788 1.716 12.867 9.592 12.225 5.353-.436 10.26-5.393 14.282-11.342-.309 6.557 2.135 11.154 9.664 11.05 5.077-.07 10.073-5.34 14.366-11.984-1.282 3.533-2.187 6.111-2.528 7.12-.469 1.388.482 2.554 1.961 3.385v.001s.01.005.017.008c.46.257.971.481 1.505.67 2.837 1.179 8.778 3.222 10.235.354 6.641-13.073 22.925-37.289 22.925-37.289s-20.446 35.722-2.201 38.299c7.316 1.033 12.953-5.115 17.052-12.684.987 7.786 5.761 13.305 16.113 13.015 21.604-.605 35.736-36.488 38.876-47.252.69-2.368-4.805-3.617-5.593-1.529zm-17.473-3.163c4.967 1.553-6.595 26.242-17.941 24.412 4.835-12.166 14.185-25.587 17.941-24.412z" fill="#191919" stroke="#191919" stroke-miterlimit="10" stroke-width="3"/></g><g id="change3_8"><path d="m165.84 88.52c-2.661 4.968-3.613 7.041-4.373 9.45-1.203 3.813 7.178 9.046 10.258 3.801 3.081-5.245 3.785-6.406 5.364-9.138 3.414-5.909-7.134-11.797-11.249-4.113z" fill="#191919" stroke="#191919" stroke-miterlimit="10" stroke-width="3"/></g><g id="change4_1"><path d="m55.982 86.731c36.351-.255 67.312-81.821 24.953-83.693-31.36-1.386-49.183 35.299-42.76 52.279-6.396 14.698-2.527 31.557 17.807 31.414zm24.579-74.095c18.573 2.63-6.562 66.083-24.048 66.313-12.173.16-2.323-32.605 18.808-37.58 2.319-.546 3.069-3.513 1.241-5.041-1.341-1.121-3.192-2.067-5.696-2.268-6.932-.556-13.167 1.252-18.409 4.49 3.85-12.181 16.828-27.51 28.104-25.914z" fill="#fece2f"/></g><g id="change4_2"><path d="m48.835 88.727c-31.491-1.006-49.949 36.94-43.405 54.782-5.958 17.594-1.604 37.015 20.042 37.078 36.219.104 68.012-90.434 23.363-91.86zm-23.054 79.877c-12.82.153-2.397-37.794 19.862-43.496 2.671-.684 3.567-4.062 1.654-6.048-1.539-1.598-3.833-3.015-7.213-3.345-5.838-.569-11.26.859-16.06 3.624 5.706-10.42 16.948-20.563 26.717-18.892 19.012 3.252-6.542 67.937-24.96 68.157z" fill="#fece2f"/></g><g id="change4_3"><path d="m107.821 38.857-22.569 37.929c-1.184 2.134 3.526 4.562 4.739 2.686 3.121-4.828 13.852-23.55 22.386-38.135.402.185.811.372 1.231.564 3.361 1.532.716 3.8-5.005 13.77-5.72 9.97-13.975 24.208-3.416 28.278 8.84 3.408 14.654-2.126 20.647-12.793.348 7.004 3.927 11.878 12.361 11.642 5.264-.147 10.063-4.254 14.086-9.538.323 5.436 3.042 8.764 9.459 8.383 6.431-.382 11.502-7.067 15.111-14.186.426 8.634 5.076 14.999 16.286 14.685 16.818-.471 31.991-26.982 38.927-41.184.225.1.451.2.679.301 4.251 1.879 2.28 4.155-3.988 13.868-7.559 11.712-13.893 24.505-2.983 29.047 10.945 4.556 19.591-6.349 25.757-19.143 4.203-8.72 6.421-14.382 7.404-17.362.765-2.316-4.227-3.661-5.029-1.85-3.843 8.68-18.043 33.834-22.487 31.735-3.333-1.574 8.737-19.061 13.538-27.395s-1.549-12.782-7.168-15.548c-.633-.312-1.227-.542-1.786-.71 1.571-2.672 3.489-5.981 5.59-9.706 3.329-5.904-7.475-11.825-12.36-4.882-8.135 11.565-6.818 16.036-2.154 19.096-6.977 12.088-21.523 34.53-33.517 34.866-5.737.161-6.658-4.924-5.103-11.551 24.021 6.951 43.07-38.822 17.901-38.116-10.496.295-21.823 14.32-26.864 28.567-3.531 6.306-12.38 21.472-15.94 21.664-5.266.284 21.046-51.684 29.601-61.088 2.633-2.894-5.66-13.093-11.557-5.447-1.879 2.436-7.407 11.035-13.167 21.566-2.073-1.653-5.657-3.718-10.817-3.896-7.829-.271-16.846 8.466-23.277 19.224h-.002s-.019.034-.03.054c-.558.935-1.098 1.884-1.614 2.845-4.687 8.187-18.012 30.881-21.073 29.777-3.42-1.233 7.365-18.711 11.866-27.155 4.501-8.443.498-11.948-5.091-14.582-.695-.328-1.338-.542-1.953-.704 2.437-4.111 4.471-7.473 5.767-9.465 3.676-5.654-6.774-11.673-11.393-4.617-7.457 11.386-6.946 15.62-2.993 18.506zm100.233-6.252c5.06 1.507-4.917 24.332-16.868 21.078 4.685-10.967 12.984-22.235 16.868-21.078zm-48.75 2.17c2.187-.247 3.917.556 5.188 1.557-1.663 3.274-3.28 6.63-4.764 9.964-.159.332-13.838 28.754-21.329 28.702-5.22-.038 12.063-39.226 20.905-40.223z" fill="#fece2f"/></g><g id="change4_4"><path d="m124.424 89.041c-2.805-.153-11.124-.51-20.554-.221-.003-.006-.005-.013-.008-.019-11.745.529-25.202.426-29.047.135-5.79-.439-5.926 11.156 2.101 11.594 2.805.153 11.124.51 20.554.221.003.006.005.013.008.019 11.745-.529 25.202-.426 29.047-.135 5.79.44 5.926-11.155-2.101-11.594z" fill="#fece2f"/></g><g id="change4_5"><path d="m255.861 166.327c-10.622-.369-183.278.319-197.837-.073-8.514-.229-8.726 11.557-.748 11.579 10.63.03 49.736.159 85.554-.124.009.006.019.012.028.018 44.625-.516 99.255-.866 113.802-.197 7.77.358 8.262-10.889-.799-11.203z" fill="#fece2f"/></g><g id="change4_6"><path d="m240.239 87.977c-4.073.341-18.378.62-30.894.245-.002.006-.005.013-.007.019-10.042-.166-18.87.299-21.845.489-8.514.543-7.783 12.119-1.649 11.605 4.073-.341 18.378-.62 30.893-.245.002-.006.005-.013.007-.019 10.042.166 18.87-.299 21.845-.489 8.515-.543 7.784-12.119 1.65-11.605z" fill="#fece2f"/></g><g id="change4_7"><path d="m259.962 113.702c-3.858 10.223-17.721 39.409-32.861 39.915-5.837.195-6.496-5.353-4.608-12.527 24.212 6.685 44.726-39.092 18.566-38.36-11.074.31-22.619 14.452-27.835 28.899-3.967 8.346-11.089 22.141-14.478 21.332-3.185-.76 10.195-30.183 14.352-37.735 4.157-7.553-10.681-11.697-14.602-7.44-5.389 5.851-17.622 27.469-24.078 39.168 4.86-12.029 11.783-28.638 15.443-35.284 2.578-4.682-9.024-8.298-10.967-4.442-2.239 4.444-4.732 10.138-7.178 16.078-1.891 3.547-16.227 30.132-21.374 30.301-5.201.172 13.373-35.924 17.156-41.837 2.948-4.608-8.799-10.192-12.713-3.724-1.687 2.789-7.318 12.413-11.691 22.748-4.817 8.174-14.182 23.156-18.165 23.244-5.273.116 19.904-52.135 28.249-61.725 2.569-2.952-5.947-12.965-11.674-5.192-2.847 3.865-14.248 22.923-21.573 40.836-5.031 9.186-15.315 27.033-18.792 26.084-3.073-.838 11.542-30.919 15.787-38.231s-10.057-11.81-13.984-7.734c-5.454 5.664-18.137 26.964-24.671 38.2 4.347-10.241 10.633-24.573 16.356-35.461 2.439-4.64-8.629-8.639-10.622-4.9-7.908 14.831-19.879 46.577-21.288 50.607-.807 2.307 1.727 3.867 4.494 4.289 2.919.93 7.771 1.938 9.296-.974 6.676-12.743 23.294-36.032 23.294-36.032s-21.36 35.382-3.729 38.584c6.609 1.2 12.699-4.944 17.624-12.734-.705 7.788 1.716 12.867 9.592 12.225 5.353-.436 10.26-5.393 14.282-11.342-.309 6.557 2.135 11.154 9.664 11.05 5.077-.07 10.073-5.34 14.366-11.984-1.282 3.533-2.187 6.111-2.528 7.12-.469 1.388.482 2.554 1.961 3.385v.001s.01.005.017.008c.46.257.971.481 1.505.67 2.837 1.179 8.778 3.222 10.235.354 6.641-13.073 22.925-37.289 22.925-37.289s-20.446 35.722-2.201 38.299c7.316 1.033 12.953-5.115 17.052-12.684.987 7.786 5.761 13.305 16.113 13.015 21.604-.605 35.736-36.488 38.876-47.252.69-2.368-4.805-3.617-5.593-1.529zm-17.473-3.163c4.967 1.553-6.595 26.242-17.941 24.412 4.835-12.166 14.185-25.587 17.941-24.412z" fill="#fece2f"/></g><g id="change4_8"><path d="m165.839 88.52c-2.661 4.968-3.613 7.041-4.373 9.45-1.203 3.813 7.178 9.046 10.258 3.801 3.081-5.245 3.785-6.406 5.364-9.138 3.414-5.909-7.134-11.797-11.249-4.113z" fill="#fece2f"/></g><g fill="#fff" id="change2_9"><path d="m112.377 41.337c.341-.135.867-1.029 1.186-.917s.008.415.55.574c.543.16.902.176 1.301.479s.34.654.436.702.426.399.33.654-.527.814-.59 1.053c-.064.239-.787 1.067-.787 1.067s.64-1.807-.442-2.504c-1.082-.695-1.984-1.108-1.984-1.108z"/><path d="m232.085 99.9v.072c2.971-.11 5.256-.238 6.506-.318 7.045-.449 7.759-8.452 4.32-10.909-.075.098-.103.206-.103.206s.17.979.426 1.489c.255.511.426 1.106.439 1.702.014.596-.014.681.369 2.013s-1.234 2.072-1.915 2.583-.808.596-1.489 1.191c-.681.596-3.617.426-5.447.936-1.83.512 0 .903-3.106 1.035z"/><path d="m107.611 106.607c-1.92 0-3.646.48-4.669 1.542-1.065 1.106-2.408 2.813-3.924 4.92.686-.79 1.366-1.317 1.536-1.351.213-.043 2.362-1.979 2.957-1.468.596.511 1.447-1.16 2.809-1.245s4.587 1.093 5.043 1.245c1.053.351 2.086 1.298 3 1.569 2.049.607 2.468 1.878 2.553 2.261s-.613 1.72-.447 1.979-.795 2.007-.795 2.007l.228-.346c.384-.707.731-1.331 1.025-1.837 3.137-5.407-3.867-9.276-9.316-9.276z"/><path d="m72.01 97.42c.061-.505-.064-.415-.351-1.277s-.128-.415-.191-1.085.383-3.415.894-4.053 1.085-.191 1.819-.83c.734-.638 1.181-.319 2.457-.351 1.277-.032 1.723 0 2.457-.191.519-.135.619-.333 1.259-.429-2.47-.042-4.419-.11-5.538-.195-.107-.008-.213-.012-.317-.012-4.038 0-5.085 6.073-2.2 9.438.044.015.079.026.079.026s-.429-.537-.368-1.041z"/><path d="m124.063 99.909c-.511 0-.926-.223-1.66 0s-1.818.524-1.818.524l-.433.067c2.87.04 5.13.114 6.373.208.107.008.213.012.317.012 3.256 0 4.57-3.952 3.444-7.247.034.229.061.656-.033 1.106-.127.606-.159.734-.159 1.245s.128.574-.351 1.245c-.479.67-.255 1.5-1.085 1.692-.83.191-1.117-.16-1.819.319s-1.053.543-2.043.479-.222.35-.733.35z"/><path d="m124.382 147.675c-.277.447-.638.851-.681 1.574s-.085 1.277-.277 2.021c-.192.745-.192 2.064-.128 2.383s.021.66.255 1.128 1.298.766 1.468.66.809-.319 1.021-.553c.213-.234.34-.766.766-1.043s.957-.383 1.255-.83.362-.574.851-1.17.596-.412.936-1.149c.144-.313.308-.58.454-.8-2.142 2.513-4.056 4.185-5.376 4.214-.006 0-.012 0-.017 0-1.344 0-.659-3.489 1.236-8.82.144-.46.24-.747.24-.747-.622.94-.877 1.025-1.132 1.621s-.594 1.064-.871 1.511z"/><path d="m141.503 87.194c-.621.843-1.649 2.408-2.952 4.526.886-1 1.74-1.695 2.199-2.12.483-.447.994-1.277 1.6-1.691.606-.415-.192-1.436 1.245-.67 1.436.766 1.372.766 1.819.798s1.628.096 2.043.479.894.83 1.66 1.053 1.404.064 1.628.574c.223.511.83 1.628 1.085 1.883s.16.766 0 1.053-.638.673-.606 1.213-.49 1.302-.49 1.302l.188-.203c.841-1.234 1.601-2.252 2.256-3.005 1.877-2.157-2.166-8.087-6.715-8.087-1.675-.001-3.419.803-4.96 2.895z"/><path d="m153.909 110.569c.689-.255.988-1.04 1.09-1.159.4-.467.47-.825 1.04-.825s.99.126 1.744.126 1.761-.14 2.046-.042.453.238 1.224.336c.772.098 1.577.783 1.912.825s1.191.364 1.828.49 1.56-.224 1.895.14c.336.364.554 1.021.906 1.105.015.004.02.013.033.017 1.576-3.042-2.963-6.397-7.307-6.397-2.158 0-4.263.828-5.538 2.935-.416.687-1.073 1.793-1.89 3.22.051-.039.106-.088.154-.116.366-.208.174-.4.863-.655z"/><path d="m221.489 154.017c1.532.254 2.425.126 3.617.765 1.191.638 2.511.809 3.404.511.894-.298 1.106-1.274 2.383-1.275s1.149-.427 1.787-.895 1.617-1.106 2.128-1.447c.399-.266 1.46-1.412 1.908-1.903-3.084 2.336-6.319 3.807-9.614 3.917-.099.003-.198.005-.294.005-4.47 0-5.735-3.539-5.1-8.586-.003-.018-.008-.045-.008-.045-.466 2.016-1.19 2.527-.977 3.974s.085 1.362.213 2.468.3.851.257 1.404c-.045.552-1.236.853.296 1.107z"/><path d="m182.84 99.442c.039-.009.056-.022.035-.04-.161-.136-.312-.706-.312-1.281s.255-.862.255-1.468 0-.957.128-1.35.255-1.203.255-1.586.319-1.085.618-1.468.275-.511.658-.989c.383-.479 1.404-.383 1.755-.798s.83-.511 1.915-.766.926-.16 2.202-.415c1.277-.255 1.181-.447 2.649-.582 1.337-.124.748.01 1.907-.246-3.412.116-6.04.262-7.413.349-6.805.434-7.7 7.918-4.652 10.64z"/><path d="m171.489 84.929c-2.092 0-4.245 1.041-5.649 3.664-.68 1.271-1.248 2.35-1.73 3.296.39-.501.735-.997 1.012-1.186.303-.207.144-.399.718-.654s.824-1.04.909-1.16c.334-.467.392-.825.867-.825.476 0 .825.126 1.455.126.629 0 1.469-.14 1.707-.042s.378.238 1.021.336 1.315.783 1.595.825.993.364 1.525.49 1.301-.224 1.581.14.462 1.021.755 1.105.266.378.07.769c-.196.392-.378 1.067-.378 1.067l.135-.159c.003-.005.005-.01.008-.015 2.248-3.893-1.563-7.777-5.601-7.777z"/><path d="m17.914 167.952c.511 1.149 3 2.234 3.638 2.936s2.489.319 2.745.319.894.128 2.298-.191 2.681-1.404 3.255-1.404 3.128-.957 3.574-1.404c.447-.447 1.021-2.17 1.851-2.936s1.34-1.149 2.043-2.298c.579-.947 1.564-2.795 1.893-3.417-4.426 5.492-9.123 9.069-13.43 9.121-.025 0-.052 0-.077 0-6.017 0-6.838-8.481-3.684-18.012l.001-.089c-1.299 1.29-2.193.907-2.193 2.886s0 3-.574 3.957-1.149 1.404-1.149 2.872.255 2.489.255 3.638-.956 2.873-.446 4.022z"/><path d="m181.599 7.377c-.253.329-.578.778-.956 1.321.131-.141.249-.244.347-.279.443-.159.329.116.744.053s-.096-.829.989-.382.479.223 1.691.766 2.713.606 3.351 1.564 1.404.894 2.426 1.436c1.021.543 1.372 1.053 1.309 1.532-.064.479-.737 1.62-.638 1.883.035.094.051.237.096.342.818-1.14 1.558-2.085 2.198-2.788 1.941-2.133-2.054-8.234-6.65-8.234-1.64-.001-3.356.775-4.907 2.786z"/><path d="m155.531 26.664c1.277.118 1.308.17 2.968 0s2.053.053 2.904.734 2 .192 3.088.745 2.178 1.043 2.178 1.043.504-.022 1.688-.299c-2.083-1.644-5.639-3.664-10.743-3.84-.118-.004-.237-.006-.356-.006-2.239 0-4.569.74-6.904 2.021.553-.112 1.189.006 2.41-.621 1.576-.808 1.491.105 2.767.223z"/><path d="m136.659 76.101c2.138.574 2.957.83 3.66.702.702-.128.979-.955 1.362-1.383s.787-.915 1.362-1.362c.574-.447.426-1.34.809-1.787s.919-.527 1.277-1.468c.174-.457.369-.818.525-1.073-2.604 3.156-5.155 5.339-7.232 5.339-.007 0-.013 0-.021 0-1.617-.011-1.073-3.783.71-9.011.342-1.064.613-1.798.613-1.798-1.17 1.564-2.574 1.501-2.638 2.841s-.383 1.756-.702 2.596c-.319.839-.215 2-.215 2.83s-1.648 2.999.49 3.574z"/><path d="m99.968 154.771c.734.191 1.309.319 1.5.67s.97-.096 1.187-.351.664-.479.983-.83.543-.064.989-1.277c.447-1.213.511-1.372.894-1.692.383-.319.696-.789.957-1.181.119-.178.191-.444.234-.656-2.167 2.822-4.066 4.695-5.293 4.695-.098 0-.192-.012-.282-.036-.969-.264-.178-3.435 1.488-7.88l.029-.154c-.74.552-.996.488-1.155 1.222-.16.734.032.798-.447 1.436s-.638.67-.798 1.245c-.16.574-.128.67-.287 1.277-.16.606-.447.989-.447 1.468.001.48-.287 1.852.448 2.044z"/><path d="m112.297 19.803c.085.085.702.553 1.468.553s1.468.298 2.043.596 2.277.681 2.277.681 1.447.383 1.553.681.617.66 1.489.851 1.71.495 1.585.799c-.124.304-.33.731-.507 1.005-.039.06 0 .023.072-.057 2.315-3.784-1.608-7.685-5.823-7.685-2.012 0-4.086.895-5.577 3.111.527-.488 1.346-.609 1.42-.535z"/><path d="m235.43 41.76c-.207-.128-.511-.638-.718-.801s-.894-.444-1.069-.443-.351-.16-.67-.368c-.319-.207-.255 0-.91.811l.08.099s1.101.447 1.181.463c.026.005.186.135.385.327 1.341.848 1.604 1.884.921 3.632l.29-.606s.239-.289.399-.529c.16-.239.191-.766.351-1.101s.144-.479.16-.91-.192-.446-.4-.574z"/><path d="m206.929 23.674c-.188 0-.377.003-.571.008-6.413.18-13.134 5.49-18.544 12.84 1.783-1.558 5.542-5.066 6.781-5.964 1.277-.926-.191.255 1.277-.926s.83-1.309 2.043-1.66 2.809-.638 3.096-.83c.287-.191.702-.989 1.979-.798s1.085.415 2.521.702 3.894-.319 4.245-.319 1.947.128 2.362.383 1.436.064 2.457.734 1.404.957 1.66 1.372c.255.415.287 1.277.606 1.723.319.447.67.447.702 1.277s.032.989.032 1.532.128 1.436.128 1.436v2.17s.064.862 0 1.117-.127.689.096.504c.005-.004.014-.031.02-.042 1.597-8.14-1.226-15.258-10.89-15.259z"/><path d="m193.537 54.072c-.76 0-1.532-.101-2.312-.309.363.742.707 1.339 1.2 1.37.511.032 1.277-.191 1.691-.191s.957-.351 2.106-.351 1.181-.315 2.17-.907c.989-.593.992.397 1.9-.912s-.241-.415 1.164-1.564c1.187-.972 1.532-1.969 1.611-2.257-2.657 2.953-5.957 5.121-9.53 5.121z"/><path d="m191.185 53.683c.006.012.011.023.017.035.014-.034.03-.067.044-.101-.066.038-.061.066-.061.066z"/><path d="m187.031 69.622c0 .894.223 1.245.287 2.362s-.3 1.787.281 2.202 2.017.032 2.751.766 1.564.734 2.553.606.064-.638 2.298-.574 3.223-1.309 3.223-1.309.096-.574 1.149-1.085 1.117-.862 1.787-1.468 1.245-1.021 1.883-1.5c.382-.286.956-1.033 1.416-1.584-3.748 3.151-7.537 5.211-11.1 5.311-.088.003-.175.004-.261.004-5.146 0-6.239-4.398-5.108-10.304l-.024.046c-.911 4.708-1.135 5.633-1.135 6.527z"/><path d="m62.085 35.675c.638.277 1.702-.191 2.617-.447.915-.255 1.979-.021 2.702.191s2.191.043 3.234-.213c1.043-.255 1.787.234 2.362.468.574.234 1.362.66 2.234.66s.809.426 1.064.66c.225.206.846.286 1.045.435-.168-.378-.423-.731-.779-1.029-1.341-1.121-3.192-2.067-5.696-2.268-.835-.067-1.66-.1-2.474-.1-3.757 0-7.285.699-10.539 1.929.448-.081 1.226-.24 1.761-.457.788-.318 1.83-.106 2.469.171z"/><path d="m85.253 76.859c-.427.77-.084 1.576.582 2.206.032.028.054.056.088.084.004.004.009.007.013.011.167.137.357.273.574.409.191.119.37.212.546.296.496.219 1.023.351 1.504.351.112 0 .217-.014.323-.029.078-.015.159-.024.231-.047.001 0 .001 0 .002-.001.243-.076.456-.194.646-.335.084-.077.164-.159.23-.261.27-.418.601-.947.979-1.562.028-.086.042-.142.042-.142s-.316.512-.382.618c-.065.105-.462.259-.483.195s-.691-.138-1.011-.138-.447-.192-.638-.34c-.192-.149-.606-.34-1.128-.532-.521-.191-.362-.181-.564-.468s-.181-.16-.372-.202c-.191-.043-.638-.66-.574-.968.026-.125.067-.245.123-.375z"/><path d="m229.51 19.739c.447 0 1.66-.553 2.277-.149s1.021.851 1.936.957 1.638.255 1.979.511c.34.255 1.532 1.021 2.085 1.043.553.021 1.936.043 2.128.511s.766.957 1.17 1.085 0 1.298 0 1.298l.156-.108c.117-.206.232-.409.349-.618 2.258-4.004-1.987-8.017-6.476-8.017-2.129 0-4.312.902-5.884 3.136-.432.614-.823 1.198-1.203 1.773.757-.796 1.068-1.422 1.483-1.422z"/><path d="m150.342 153.679c-.012 0-.025.001-.037.001-1.644 0-.811-3.773 1.186-9.064l-.108-.072c-1.053 1.259-1.053.717-1.309 1.866s-.096.894-.606 1.819-.734.9-.798 1.775c-.064.874-.16 1.385-.351 2.023-.192.638 0 1.468 0 1.468s.16.191.479.511.926.734 1.404.638c.479-.096 1.021-.351 1.436-.415s1.053-1.692 1.723-1.851c.67-.16 1.372-1.085 1.5-1.372.109-.245.083-.714.27-1.091-1.909 2.258-3.597 3.725-4.789 3.764z"/><path d="m231.992 77.751c-.206 0-.399-.04-.576-.124-.941-.444-.654-2.158.35-4.574.508-1.409 1.195-2.647 1.195-2.647-.803.939-1.218.907-1.633 1.768s-.415 1.564-.894 2.17-1.149 1.66-1.309 2.266-.351.862.064 1.66.383 1.245.957 1.245 1.213-.383 1.819-.319 1.309-.064 1.532-.287.415-1.053.83-1.34 1.021-1.053 1.181-1.245c.16-.191 1.117-1.213 1.372-1.66.199-.348.454-.983.558-1.25-2.178 2.637-4.11 4.337-5.446 4.337z"/><path d="m24.061 119.35c.014-.026.031-.052.045-.077l-.082.067c.012.002.025.007.037.01z"/><path d="m262.092 112.713c-.978 0-1.849.321-2.129 1.062-.153.405-.327.849-.51 1.311.257-.51.401-.573.526-.495.17.106.787-.319 1.192-.383.404-.064.255.191 1.106.255s1.872-.085 2.106.34c.234.426.362.298.596.468s.375.634.327.79c-.008.024.012-.01.041-.066.071-.234.146-.476.209-.691.445-1.529-1.685-2.591-3.464-2.591z"/><path d="m26.116 119.537c.862-.319.734-.415 1.947-.415s1.755-.606 3.415-.734 2.202-.223 3.766-.032c1.564.192 3.191-.574 4.819-.543 1.628.032 2.553.383 3.255.734s2.298.064 3.064.479c.756.409 1.888 2.202 1.917 2.25-.015-.145-.041-.29-.074-.434-.004-.019-.01-.04-.015-.06-.147-.593-.444-1.163-.912-1.649-1.539-1.598-3.833-3.015-7.213-3.345-.852-.083-1.696-.124-2.53-.124-4.844 0-9.366 1.37-13.443 3.7.518.15 1.189.475 2.004.173z"/><path d="m257.021 177.612c5.495 0 7.102-5.972 3.95-9.201l-.216 1.615s.894 1.691.957 2.553c.064.862-.894 1.117-.894 1.117s-.989 1.277-1.372 1.66-2.521.638-3.351.574-1.436.447-2.394.702c-.957.255-1.468 0-2.968 0s-1.468.543-3.863.653l-.052.072c4.162.058 7.521.139 9.843.246.122.006.242.009.36.009z"/><path d="m111.852 76.985c-.084 0-.162-.013-.234-.039-1.065-.384-.752-2.343.319-5.114.1-.311.171-.508.171-.508l.552-1.306.109-.246c-.719.911-1.247 1.206-1.438 1.717s-.654 1.484-.83 1.899-.415.766-.415 1.069-.351 1.372-.383 1.707.383 1.755 1.468 1.548 1.34-.077 1.675.018c.335.096.543-.242.83-.641s.367-.527.766-.862.495-.638.734-1.101.255-.606.606-.926c.288-.262.445-.955.493-1.198-1.916 2.426-3.503 3.983-4.423 3.983z"/><path d="m53.308 169.803c1.277-.638 1.819-.847 2.394-1.125.575-.279 1.117-1.492 2.298-.917 1.181.574 1.755.046 3.032-.153 1.277-.198 1.628-.326 3-.326s2.872-.447 2.968-.447c.039 0 .126-.193.215-.419-4.507-.02-7.689-.049-9.189-.089-.082-.002-.164-.003-.244-.003-4.148-.001-6.248 2.904-6.318 5.804l.003-.003c.042-.604.564-1.684 1.841-2.322z"/><path d="m54.468 13.335c.809-.851 1.447-.894 2.596-1.277s4.17-1.447 5.106-2.596 2.213-1.021 3.787-1.447 2.426-.851 3.745-1.745 2-.383 4 .213 3.106 0 4.085-.468 6.17-.596 9.311 0 1.795 1.064 3.667 1.447 3.149 2.851 5.192 4.043c2.013 1.174 3.076 4.613 4.188 5.886-2.399-8.154-8.423-13.804-19.21-14.281-.578-.026-1.154-.038-1.723-.038-11.519 0-21.117 5.163-28.251 12.471.292-.229.65-.461.952-.506.632-.094 1.746-.851 2.555-1.702z"/><path d="m254.382 47.058c.17.064.638.085.979.085.34 0 .191-.255.596.064.404.319 1.234.232 1.468.563s.191.48.532.629c.34.149.644.245.57.453-.009.026.002.022.028-.006.141-.399.269-.77.378-1.102.518-1.568-1.603-2.691-3.276-2.691-.798 0-1.495.256-1.754.841-.27.611-.598 1.311-.964 2.07.684-1.077 1.295-.962 1.443-.906z"/><path d="m231.659 107.845c2.213-.638 2.809-.851 3.787-1.277.979-.426.638-1.106 2.383-1.106s.851-.17 2.851.128 4.383-1.416 5.277-.176 2.213 1.24 3.106 1.665c.894.426 1.66 1.064 1.915 1.489s1.234 1.711 1.489 1.898-.596.91 0 1.761.383 1.574.298 2.17.248 2.254.248 2.254.007-.01.009-.013c1.135-7.54-1.912-13.844-11.348-13.846-.203 0-.405.003-.614.009-5.742.161-11.607 4.044-16.654 9.756 1.399-1.158 2.005-1.134 3.169-1.776 1.233-.68 1.871-2.297 4.084-2.936z"/><path d="m197.499 153.75c.734.351 1.628.255 1.979.255s.926-.67 1.66-1.181.319-.766.734-1.117 1.085-.798 1.372-1.404c.228-.482.49-1.255.589-1.555-1.834 2.588-3.531 4.319-4.792 4.319-.102 0-.2-.011-.296-.034-1.023-.244-.332-3.453 1.209-7.937l-.017-.033c-.683.867-1.609 1.41-1.609 2.144s.064.862-.287 1.5-.415.83-.574 1.564c-.16.734-.128 1.277-.128 1.628.001.351-.574 1.499.16 1.851z"/><path d="m224.548 134.951c.015.639-.559.16.622.639s1.691.67 2.457.287 1.468-.511 1.883-.607 1.819-.957 2.33-1.404 1.947-1.053 2.426-1.34 1.117-1.021 1.564-1.915.447-.894.702-1.404l1.072-2.086c-3.28 4.422-7.53 8-11.839 8-.405 0-.81-.031-1.215-.097.01-.025.021-.05.03-.075-.017.001-.032.002-.032.002z"/><path d="m197.787 109.335c.298.128 2.34-.255 2.596-.34.255-.085.596-.766 2.638 0 2.043.766 2.553.551 3.362.765.808.214 1.532.265 2.255.708.723.442 1.489.825 1.915 1.506s1.021.979 1.574 1.404c.553.426.936.936.681 1.574s-.551 1.853-.681 2.106c-.017.033.01.009.067-.056.334-.648.638-1.221.903-1.704 3.009-5.468-3.938-9.15-9.49-9.15-2.117 0-4.03.535-5.112 1.71-.702.762-1.521 1.796-2.427 3.036.924-1.162 1.492-1.656 1.719-1.559z"/><path d="m177.967 110.25c.702-.351.415-1.348 1.628-1.029s2.489 0 2.809 0 1.404.156 2.106.539 1.031 1.309 1.956 1.5c.926.191 1.235.171 1.49.394s.989.606.926 1.085c-.064.479-.479.814-.447 1.213.022.272.02.276.266.006.414-.823.802-1.568 1.159-2.216 1.816-3.298-3.406-6.068-7.33-6.068-1.646 0-3.063.487-3.637 1.626-.739 1.466-1.507 3.078-2.29 4.78.712-1.103.703-1.5 1.364-1.83z"/><path d="m83.148 108.909c.128-.223.287-.415.702-.734s1.213-.415 1.532 0 2.394.16 2.394.16 0 .064.894.543 2.808.287 3.574.638 1.053.83 1.468 1.181.633.652.423 1.057c-.028.054-.017.064.017.049.158-.304.317-.615.474-.915 1.764-3.356-3.539-6.376-7.362-6.377-1.463 0-2.709.442-3.26 1.476-.906 1.699-1.866 3.627-2.857 5.702.501-.857.801-.951 1.14-1.472.415-.638.734-1.084.861-1.308z"/><path d="m206.242 66.648c-.261.241-.522.476-.784.707.202-.108.528-.432.784-.707z"/><path d="m163.063 69.462c-.362.83-.34.851-.809 1.553-.468.702-.66 1.234-.702 1.851-.043.617-.149 1.277-.149 1.702s.106.681 1.085.681 1.149-.081 1.489-.253.34-.066.915-.321.894-.319 1.021-.787c.128-.468.298-.957.617-1.298.319-.34.711-.982.957-1.553.247-.571.696-.725.808-1.064.032-.097.099-.222.177-.35-1.964 2.5-3.735 4.226-4.919 4.29-.014.001-.029.001-.042.001-1.041 0-.769-2.172.394-5.703h-.024c-.414.4-.456.422-.818 1.251z"/><path d="m52.364 65.072c-1.449 2.156-1.705 2.22-1.705 3.369s-.255 1.532-.574 2.745-.638 3.216-.511 3.714c.128.499.383 1.455.511 2.668s.447 2.527 1.723 2.668c1.277.141 1.596.269 3.447.588s4.021-.218 4.723-.588 2.617-1.199 3.064-1.582.83-.957 1.532-2.106c.604-.988.231-1.321.719-1.997-2.982 2.771-5.978 4.435-8.779 4.472-.029 0-.06.001-.088.001-5.312 0-6.356-6.351-4.06-13.874z"/><path d="m34.063 92.888c2.681-.064 8.362.128 9.383-.511 1.021-.638 2.952-.383 4.859.447s2.481.128 4.524.447 2.872.413 4.34 1.515 2.553 1.038 4.596 1.677 2.426.83 2.809 1.915 1.66 2.362 2.362 3.128.574 2.17.766 3 .802 2.043 1.454 3.192.633 3.649 1.035 3.894c.278.17.378.417.403.417-.902-12.991-7.34-22.748-21.758-23.208-.409-.013-.82-.02-1.225-.02-8.846 0-16.62 3.089-23.065 7.894 2.654-1.223 4.831-2.005 5.815-2.19 1.021-.193 1.021-1.533 3.702-1.597z"/></g></svg>