<?xml version="1.0" encoding="UTF-8" standalone="no"?><svg xmlns="http://www.w3.org/2000/svg" xmlns:xlink="http://www.w3.org/1999/xlink" fill="#000000" height="44" preserveAspectRatio="xMidYMid meet" version="1" viewBox="0.0 0.0 42.0 44.0" width="42" zoomAndPan="magnify"><defs><clipPath id="a"><path d="M 0 0 L 42.039062 0 L 42.039062 20 L 0 20 Z M 0 0"/></clipPath></defs><g><g id="change1_2"><path d="M 21.601562 38.25 C 21.601562 36.53125 22.9375 35.242188 25.125 35.242188 C 28.566406 35.242188 31.601562 39.582031 35.097656 39.582031 C 36.28125 39.582031 36.8125 38.328125 36.425781 37.339844 C 36 36.25 34.683594 35.914062 35.019531 35.671875 C 35.515625 35.3125 37.066406 35.542969 38.113281 36.980469 C 38.421875 37.398438 39.234375 39 38.246094 40.980469 C 37.144531 43.1875 34.621094 44 32.125 44 C 25.007812 44 21.601562 40.441406 21.601562 38.25" fill="#ffffff"/></g><g id="change1_3"><path d="M 20.4375 38.25 C 20.4375 36.53125 19.105469 35.242188 16.914062 35.242188 C 13.472656 35.242188 10.441406 39.582031 6.945312 39.582031 C 5.761719 39.582031 5.226562 38.328125 5.613281 37.339844 C 6.039062 36.25 7.359375 35.914062 7.023438 35.671875 C 6.527344 35.3125 4.976562 35.542969 3.925781 36.980469 C 3.621094 37.398438 2.804688 39 3.796875 40.980469 C 4.898438 43.1875 7.421875 44 9.917969 44 C 17.03125 44 20.4375 40.441406 20.4375 38.25" fill="#ffffff"/></g><g id="change1_4"><path d="M 28.71875 18.074219 C 26.632812 20.007812 23.871094 21.101562 21.019531 21.101562 C 18.167969 21.101562 15.40625 20.007812 13.324219 18.074219 C 11.699219 19.636719 9.53125 20.519531 7.257812 20.519531 C 6.761719 20.519531 6.277344 20.476562 5.800781 20.398438 C 7.128906 22.445312 8.460938 25.59375 8.847656 30.25 C 8.871094 30.519531 9.097656 30.679688 9.359375 30.617188 C 10.769531 30.285156 15.210938 29.359375 21.019531 29.359375 C 26.832031 29.359375 31.269531 30.285156 32.683594 30.617188 C 32.945312 30.679688 33.171875 30.519531 33.195312 30.25 C 33.582031 25.59375 34.914062 22.441406 36.238281 20.398438 C 35.765625 20.476562 35.28125 20.519531 34.785156 20.519531 C 32.511719 20.519531 30.34375 19.636719 28.71875 18.074219" fill="#ffffff"/></g><g clip-path="url(#a)" id="change1_1"><path d="M 34.785156 4.503906 C 33.378906 4.503906 32.019531 4.90625 30.84375 5.667969 L 30.144531 6.121094 L 29.765625 5.378906 C 28.085938 2.058594 24.734375 0 21.019531 0 C 17.308594 0 13.957031 2.058594 12.277344 5.378906 L 11.898438 6.121094 L 11.199219 5.667969 C 10.023438 4.90625 8.660156 4.503906 7.257812 4.503906 C 3.257812 4.503906 0 7.761719 0 11.761719 C 0 15.761719 3.257812 19.019531 7.257812 19.019531 C 9.363281 19.019531 11.359375 18.101562 12.742188 16.507812 L 13.289062 15.878906 L 13.859375 16.488281 C 15.734375 18.496094 18.277344 19.601562 21.019531 19.601562 C 23.761719 19.601562 26.304688 18.496094 28.183594 16.488281 L 28.75 15.878906 L 29.296875 16.507812 C 30.679688 18.101562 32.679688 19.019531 34.78125 19.019531 C 38.785156 19.019531 42.039062 15.761719 42.039062 11.761719 C 42.039062 7.761719 38.785156 4.503906 34.785156 4.503906" fill="#ffffff"/></g></g></svg>